<mxfile host="Electron" modified="2024-02-20T18:24:03.508Z" agent="Mozilla/5.0 (Windows NT 10.0; Win64; x64) AppleWebKit/537.36 (KHTML, like Gecko) draw.io/23.1.5 Chrome/120.0.6099.109 Electron/28.1.0 Safari/537.36" etag="1QOau53-IyrMHdFFJyZV" version="23.1.5" type="device">
  <diagram name="Страница — 1" id="2PRr_uf-MyoMLVPdvisQ">
    <mxGraphModel dx="1195" dy="703" grid="1" gridSize="10" guides="1" tooltips="1" connect="1" arrows="1" fold="1" page="1" pageScale="1" pageWidth="827" pageHeight="1169" math="0" shadow="0">
      <root>
        <mxCell id="0" />
        <mxCell id="1" parent="0" />
        <mxCell id="NDVshwP-QUf1Wy6CDaLq-9" value="&amp;nbsp; &amp;nbsp; Product" style="swimlane;fontStyle=0;childLayout=stackLayout;horizontal=1;startSize=26;fillColor=#dae8fc;horizontalStack=0;resizeParent=1;resizeParentMax=0;resizeLast=0;collapsible=1;marginBottom=0;html=1;align=left;strokeColor=#6c8ebf;" vertex="1" parent="1">
          <mxGeometry x="80" y="300" width="190" height="140" as="geometry">
            <mxRectangle x="230" y="280" width="90" height="30" as="alternateBounds" />
          </mxGeometry>
        </mxCell>
        <mxCell id="NDVshwP-QUf1Wy6CDaLq-10" value="ID&amp;nbsp; &amp;nbsp; &amp;nbsp; &amp;nbsp; &amp;nbsp; &amp;nbsp; &amp;nbsp; &amp;nbsp; &amp;nbsp; &amp;nbsp; &amp;nbsp; &amp;nbsp;int&lt;br&gt;Name&amp;nbsp; &amp;nbsp; &amp;nbsp; &amp;nbsp; &amp;nbsp; &amp;nbsp; &amp;nbsp; &amp;nbsp; &amp;nbsp;varchar(100)&lt;br&gt;Description&amp;nbsp; &amp;nbsp; &amp;nbsp; &amp;nbsp; text&lt;br&gt;Price&amp;nbsp; &amp;nbsp; &amp;nbsp; &amp;nbsp; &amp;nbsp; &amp;nbsp; &amp;nbsp; &amp;nbsp; &amp;nbsp; decimal(10, 2)&lt;br&gt;Category&amp;nbsp; &amp;nbsp; &amp;nbsp; &amp;nbsp; &amp;nbsp; &amp;nbsp;varchar(50)&lt;br&gt;Availability&amp;nbsp; &amp;nbsp; &amp;nbsp; &amp;nbsp; &amp;nbsp;bool&lt;br&gt;SupplierID&amp;nbsp; &amp;nbsp; &amp;nbsp; &amp;nbsp; &amp;nbsp;int&amp;nbsp; &amp;nbsp; &amp;nbsp;&amp;nbsp;" style="text;strokeColor=none;fillColor=none;align=left;verticalAlign=top;spacingLeft=4;spacingRight=4;overflow=hidden;rotatable=0;points=[[0,0.5],[1,0.5]];portConstraint=eastwest;whiteSpace=wrap;html=1;" vertex="1" parent="NDVshwP-QUf1Wy6CDaLq-9">
          <mxGeometry y="26" width="190" height="114" as="geometry" />
        </mxCell>
        <mxCell id="NDVshwP-QUf1Wy6CDaLq-13" value="&amp;nbsp; &amp;nbsp; Customer" style="swimlane;fontStyle=0;childLayout=stackLayout;horizontal=1;startSize=26;fillColor=#dae8fc;horizontalStack=0;resizeParent=1;resizeParentMax=0;resizeLast=0;collapsible=1;marginBottom=0;html=1;align=left;strokeColor=#6c8ebf;" vertex="1" parent="1">
          <mxGeometry x="580" y="330" width="180" height="130" as="geometry">
            <mxRectangle x="230" y="280" width="90" height="30" as="alternateBounds" />
          </mxGeometry>
        </mxCell>
        <mxCell id="NDVshwP-QUf1Wy6CDaLq-14" value="ID&amp;nbsp; &amp;nbsp; &amp;nbsp; &amp;nbsp; &amp;nbsp; &amp;nbsp; &amp;nbsp; &amp;nbsp; &amp;nbsp; &amp;nbsp; &amp;nbsp; &amp;nbsp; &amp;nbsp; &amp;nbsp;int&lt;br&gt;FirstName&amp;nbsp; &amp;nbsp; &amp;nbsp; &amp;nbsp; &amp;nbsp; &amp;nbsp; &amp;nbsp;varchar(50)&lt;br&gt;LastName&amp;nbsp; &amp;nbsp; &amp;nbsp; &amp;nbsp; &amp;nbsp; &amp;nbsp; &amp;nbsp;varchar(50)&amp;nbsp;&amp;nbsp;&lt;br&gt;Email&amp;nbsp; &amp;nbsp; &amp;nbsp; &amp;nbsp; &amp;nbsp; &amp;nbsp; &amp;nbsp; &amp;nbsp; &amp;nbsp; &amp;nbsp; &amp;nbsp;varchar(100)&lt;br&gt;Adress&amp;nbsp; &amp;nbsp; &amp;nbsp; &amp;nbsp; &amp;nbsp; &amp;nbsp; &amp;nbsp; &amp;nbsp; &amp;nbsp; &amp;nbsp;varchar(200)&lt;br&gt;OrderID&amp;nbsp; &amp;nbsp; &amp;nbsp; &amp;nbsp; &amp;nbsp; &amp;nbsp; &amp;nbsp; &amp;nbsp; &amp;nbsp; int" style="text;strokeColor=none;fillColor=none;align=left;verticalAlign=top;spacingLeft=4;spacingRight=4;overflow=hidden;rotatable=0;points=[[0,0.5],[1,0.5]];portConstraint=eastwest;whiteSpace=wrap;html=1;" vertex="1" parent="NDVshwP-QUf1Wy6CDaLq-13">
          <mxGeometry y="26" width="180" height="104" as="geometry" />
        </mxCell>
        <mxCell id="NDVshwP-QUf1Wy6CDaLq-15" value="&amp;nbsp; &amp;nbsp; Order" style="swimlane;fontStyle=0;childLayout=stackLayout;horizontal=1;startSize=26;fillColor=#dae8fc;horizontalStack=0;resizeParent=1;resizeParentMax=0;resizeLast=0;collapsible=1;marginBottom=0;html=1;align=left;strokeColor=#6c8ebf;" vertex="1" parent="1">
          <mxGeometry x="280" y="130" width="180" height="140" as="geometry">
            <mxRectangle x="230" y="280" width="90" height="30" as="alternateBounds" />
          </mxGeometry>
        </mxCell>
        <mxCell id="NDVshwP-QUf1Wy6CDaLq-16" value="ID&amp;nbsp; &amp;nbsp; &amp;nbsp; &amp;nbsp; &amp;nbsp; &amp;nbsp; &amp;nbsp; &amp;nbsp; &amp;nbsp; &amp;nbsp; &amp;nbsp; &amp;nbsp; &amp;nbsp;int&lt;br&gt;Date&amp;nbsp; &amp;nbsp; &amp;nbsp; &amp;nbsp; &amp;nbsp; &amp;nbsp; &amp;nbsp; &amp;nbsp; &amp;nbsp; &amp;nbsp; &amp;nbsp;date&lt;br&gt;Status&amp;nbsp; &amp;nbsp; &amp;nbsp; &amp;nbsp; &amp;nbsp; &amp;nbsp; &amp;nbsp; &amp;nbsp; &amp;nbsp; bool&lt;br&gt;TotalSum&amp;nbsp; &amp;nbsp; &amp;nbsp; &amp;nbsp; &amp;nbsp; &amp;nbsp; &amp;nbsp;decimal(10, 2)&lt;br&gt;ProductID&amp;nbsp; &amp;nbsp; &amp;nbsp; &amp;nbsp; &amp;nbsp; &amp;nbsp; int&lt;div&gt;DiscountID&amp;nbsp; &amp;nbsp; &amp;nbsp; &amp;nbsp; &amp;nbsp; int&lt;br&gt;&lt;/div&gt;&lt;div&gt;ClientID&amp;nbsp; &amp;nbsp; &amp;nbsp; &amp;nbsp; &amp;nbsp; &amp;nbsp; &amp;nbsp; &amp;nbsp;int&lt;br&gt;&lt;/div&gt;" style="text;strokeColor=none;fillColor=none;align=left;verticalAlign=top;spacingLeft=4;spacingRight=4;overflow=hidden;rotatable=0;points=[[0,0.5],[1,0.5]];portConstraint=eastwest;whiteSpace=wrap;html=1;" vertex="1" parent="NDVshwP-QUf1Wy6CDaLq-15">
          <mxGeometry y="26" width="180" height="114" as="geometry" />
        </mxCell>
        <mxCell id="NDVshwP-QUf1Wy6CDaLq-17" value="&amp;nbsp; &amp;nbsp; Discount" style="swimlane;fontStyle=0;childLayout=stackLayout;horizontal=1;startSize=26;fillColor=#dae8fc;horizontalStack=0;resizeParent=1;resizeParentMax=0;resizeLast=0;collapsible=1;marginBottom=0;html=1;align=left;strokeColor=#6c8ebf;" vertex="1" parent="1">
          <mxGeometry x="580" y="204" width="230" height="110" as="geometry">
            <mxRectangle x="230" y="280" width="90" height="30" as="alternateBounds" />
          </mxGeometry>
        </mxCell>
        <mxCell id="NDVshwP-QUf1Wy6CDaLq-18" value="ID&amp;nbsp; &amp;nbsp; &amp;nbsp; &amp;nbsp; &amp;nbsp; &amp;nbsp; &amp;nbsp; &amp;nbsp; &amp;nbsp; &amp;nbsp; &amp;nbsp; &amp;nbsp; &amp;nbsp; &amp;nbsp; &amp;nbsp; &amp;nbsp; &amp;nbsp; &amp;nbsp; &amp;nbsp; &amp;nbsp; &amp;nbsp;int&lt;br&gt;Name&amp;nbsp; &amp;nbsp; &amp;nbsp; &amp;nbsp; &amp;nbsp; &amp;nbsp; &amp;nbsp; &amp;nbsp; &amp;nbsp; &amp;nbsp; &amp;nbsp; &amp;nbsp; &amp;nbsp; &amp;nbsp; &amp;nbsp; &amp;nbsp; &amp;nbsp; &amp;nbsp;varchar(100)&lt;br&gt;Description&amp;nbsp; &amp;nbsp; &amp;nbsp; &amp;nbsp; &amp;nbsp; &amp;nbsp; &amp;nbsp; &amp;nbsp; &amp;nbsp; &amp;nbsp; &amp;nbsp; &amp;nbsp; &amp;nbsp; &amp;nbsp;varchar(200)&lt;br&gt;PercentageOfDiscount&amp;nbsp; &amp;nbsp; &amp;nbsp; &amp;nbsp; &amp;nbsp;int&lt;br&gt;OrderID&amp;nbsp; &amp;nbsp; &amp;nbsp; &amp;nbsp; &amp;nbsp; &amp;nbsp; &amp;nbsp; &amp;nbsp; &amp;nbsp; &amp;nbsp; &amp;nbsp; &amp;nbsp; &amp;nbsp; &amp;nbsp; &amp;nbsp; &amp;nbsp; int" style="text;strokeColor=none;fillColor=none;align=left;verticalAlign=top;spacingLeft=4;spacingRight=4;overflow=hidden;rotatable=0;points=[[0,0.5],[1,0.5]];portConstraint=eastwest;whiteSpace=wrap;html=1;" vertex="1" parent="NDVshwP-QUf1Wy6CDaLq-17">
          <mxGeometry y="26" width="230" height="84" as="geometry" />
        </mxCell>
        <mxCell id="NDVshwP-QUf1Wy6CDaLq-19" value="&amp;nbsp; &amp;nbsp; Supplier" style="swimlane;fontStyle=0;childLayout=stackLayout;horizontal=1;startSize=26;fillColor=#dae8fc;horizontalStack=0;resizeParent=1;resizeParentMax=0;resizeLast=0;collapsible=1;marginBottom=0;html=1;align=left;strokeColor=#6c8ebf;" vertex="1" parent="1">
          <mxGeometry x="324" y="540" width="180" height="110" as="geometry">
            <mxRectangle x="230" y="280" width="90" height="30" as="alternateBounds" />
          </mxGeometry>
        </mxCell>
        <mxCell id="NDVshwP-QUf1Wy6CDaLq-20" value="ID&amp;nbsp; &amp;nbsp; &amp;nbsp; &amp;nbsp; &amp;nbsp; &amp;nbsp; &amp;nbsp; &amp;nbsp; &amp;nbsp; &amp;nbsp; &amp;nbsp; &amp;nbsp; &amp;nbsp; int&lt;br&gt;Name&amp;nbsp; &amp;nbsp; &amp;nbsp; &amp;nbsp; &amp;nbsp; &amp;nbsp; &amp;nbsp; &amp;nbsp; &amp;nbsp; &amp;nbsp; varchar(100)&lt;br&gt;Adress&amp;nbsp; &amp;nbsp; &amp;nbsp; &amp;nbsp; &amp;nbsp; &amp;nbsp; &amp;nbsp; &amp;nbsp; &amp;nbsp; &amp;nbsp;varchar(200)&lt;br&gt;Email&amp;nbsp; &amp;nbsp; &amp;nbsp; &amp;nbsp; &amp;nbsp; &amp;nbsp; &amp;nbsp; &amp;nbsp; &amp;nbsp; &amp;nbsp; &amp;nbsp;varchar(100)&lt;br&gt;PhoneNumber&amp;nbsp; &amp;nbsp; &amp;nbsp; &amp;nbsp;varchar(20)" style="text;strokeColor=none;fillColor=none;align=left;verticalAlign=top;spacingLeft=4;spacingRight=4;overflow=hidden;rotatable=0;points=[[0,0.5],[1,0.5]];portConstraint=eastwest;whiteSpace=wrap;html=1;" vertex="1" parent="NDVshwP-QUf1Wy6CDaLq-19">
          <mxGeometry y="26" width="180" height="84" as="geometry" />
        </mxCell>
        <mxCell id="NDVshwP-QUf1Wy6CDaLq-23" style="edgeStyle=orthogonalEdgeStyle;rounded=0;orthogonalLoop=1;jettySize=auto;html=1;entryX=0;entryY=0.122;entryDx=0;entryDy=0;entryPerimeter=0;" edge="1" parent="1" source="NDVshwP-QUf1Wy6CDaLq-16" target="NDVshwP-QUf1Wy6CDaLq-14">
          <mxGeometry relative="1" as="geometry">
            <Array as="points">
              <mxPoint x="520" y="260" />
              <mxPoint x="520" y="369" />
            </Array>
          </mxGeometry>
        </mxCell>
        <mxCell id="NDVshwP-QUf1Wy6CDaLq-25" style="edgeStyle=orthogonalEdgeStyle;rounded=0;orthogonalLoop=1;jettySize=auto;html=1;entryX=0;entryY=0.123;entryDx=0;entryDy=0;entryPerimeter=0;" edge="1" parent="1" source="NDVshwP-QUf1Wy6CDaLq-16" target="NDVshwP-QUf1Wy6CDaLq-10">
          <mxGeometry relative="1" as="geometry">
            <Array as="points">
              <mxPoint x="540" y="230" />
              <mxPoint x="540" y="90" />
              <mxPoint x="50" y="90" />
              <mxPoint x="50" y="340" />
            </Array>
          </mxGeometry>
        </mxCell>
        <mxCell id="NDVshwP-QUf1Wy6CDaLq-27" style="edgeStyle=orthogonalEdgeStyle;rounded=0;orthogonalLoop=1;jettySize=auto;html=1;entryX=0.001;entryY=0.159;entryDx=0;entryDy=0;entryPerimeter=0;" edge="1" parent="1" target="NDVshwP-QUf1Wy6CDaLq-18">
          <mxGeometry relative="1" as="geometry">
            <mxPoint x="460" y="243.39534883720933" as="sourcePoint" />
            <Array as="points">
              <mxPoint x="520" y="243" />
            </Array>
          </mxGeometry>
        </mxCell>
        <mxCell id="NDVshwP-QUf1Wy6CDaLq-28" style="edgeStyle=orthogonalEdgeStyle;rounded=0;orthogonalLoop=1;jettySize=auto;html=1;entryX=-0.004;entryY=0.141;entryDx=0;entryDy=0;entryPerimeter=0;" edge="1" parent="1" source="NDVshwP-QUf1Wy6CDaLq-10" target="NDVshwP-QUf1Wy6CDaLq-20">
          <mxGeometry relative="1" as="geometry">
            <Array as="points">
              <mxPoint x="297" y="430" />
              <mxPoint x="297" y="578" />
            </Array>
          </mxGeometry>
        </mxCell>
      </root>
    </mxGraphModel>
  </diagram>
</mxfile>
